<svg width="161" height="160" viewBox="0 0 161 160" fill="none" xmlns="http://www.w3.org/2000/svg">
<g id="Layer 1">
<g id="Group">
<path id="Vector" d="M92.4985 69.0889C87.7489 73.6982 85.0737 79.9528 85.0737 86.482V89.9812H99.5227C106.229 89.9812 112.667 87.3976 117.417 82.7882C122.166 78.1788 124.841 71.9243 124.841 65.3951V61.8959H110.392C103.686 61.8959 97.2481 64.4795 92.4985 69.0889Z" fill="white"/>
<path id="Vector_2" d="M47.8925 40.809H36.1616V46.9434C36.1616 54.1707 39.1229 61.0976 44.3818 66.202C49.6406 71.3035 56.7707 74.1646 64.1954 74.1646H75.9263V68.0303C75.9263 60.8029 72.965 53.876 67.7061 48.7717C62.4473 43.6702 55.3172 40.809 47.8925 40.809Z" fill="white"/>
<g id="Group_2">
<path id="Vector_3" d="M17.0462 101.326C15.8617 101.764 15.3581 102.965 15.8217 104.221L16.2423 105.357L20.2908 103.864L19.8731 102.728C19.4096 101.472 18.2336 100.888 17.0491 101.326H17.0462Z" fill="white"/>
<path id="Vector_4" d="M139.559 46.992L137.273 47.3096L138.083 48.7602L139.559 46.992Z" fill="white"/>
<path id="Vector_5" d="M14.7973 67.1118C16.0277 67.3979 17.2894 66.634 17.5612 65.4523C17.8359 64.2735 17.0376 63.0318 15.8102 62.7457C14.5942 62.4624 13.3324 63.2263 13.0577 64.408C12.7831 65.5868 13.5785 66.8286 14.7973 67.1118Z" fill="white"/>
<path id="Vector_6" d="M55.9727 20.0798C57.2145 19.579 57.7638 18.3888 57.2917 17.2186C56.8225 16.0483 55.6065 15.5791 54.3647 16.0798L53.2432 16.5319L54.8511 20.5318L55.9727 20.0798Z" fill="white"/>
<path id="Vector_7" d="M99.5939 141.869C98.3121 142.258 97.6597 143.397 98.0259 144.604C98.3922 145.811 99.5595 146.386 100.844 146L102.003 145.651L100.756 141.52L99.5967 141.869H99.5939Z" fill="white"/>
<path id="Vector_8" d="M80.5014 0C36.3162 0 0.5 35.8162 0.5 80.0014C0.5 124.187 36.3162 160.003 80.5014 160.003C124.687 160.003 160.503 124.187 160.503 80.0014C160.503 35.8162 124.684 0 80.5014 0ZM150.351 65.5239L143.862 66.8171L144.666 70.8571L142.483 71.292L141.19 64.8028L149.862 63.0718L150.351 65.521V65.5239ZM142.074 43.9677L143.447 46.4284L137.379 53.7101L136.005 51.2466L136.821 50.2738L135.322 47.5871L134.066 47.7702L132.692 45.3068L142.074 43.962V43.9677ZM124.841 26.8464L126.363 25.2184L132.006 30.4916L130.486 32.1196L128.578 30.3342L124.06 35.1696L122.235 33.4644L126.752 28.629L124.844 26.8464H124.841ZM112.02 15.9969L114.243 17.1356L110.206 25.0096L107.983 23.8708L112.02 15.9969ZM88.8847 13.4647C89.3568 11.0241 91.9433 9.39897 94.547 9.9054C95.9146 10.1686 97.1306 10.9955 97.843 12.1314L95.7286 13.3617C95.4082 12.7208 94.813 12.2659 94.1178 12.1314C92.8903 11.8939 91.6543 12.7294 91.414 13.9568C91.1736 15.1957 92.0119 16.4346 93.2365 16.6721C93.6657 16.7551 94.1092 16.7093 94.5183 16.5548L94.6814 15.7079L92.9876 15.3788L93.3395 13.5706L97.411 14.3603L96.6957 18.054C95.6085 18.8523 94.1693 19.1642 92.8045 18.9009C90.2008 18.3974 88.4126 15.911 88.8847 13.4704V13.4647ZM74.9593 8.86393L75.8062 17.6678L73.3199 17.9053L72.473 9.10141L74.9593 8.86393ZM80.5014 27.7477C96.7386 27.7477 111.253 35.1038 120.91 46.6601H110.346C109.857 46.6601 109.371 46.6773 108.884 46.6944C101.211 40.2196 91.3052 36.3055 80.5014 36.3055C79.3255 36.3055 78.1638 36.3656 77.0079 36.4571C76.7104 36.1968 76.4242 35.925 76.1181 35.6732C73.1825 33.244 69.9465 31.224 66.5074 29.6418C70.9651 28.4144 75.6517 27.7477 80.4986 27.7477H80.5014ZM53.1343 14.1314C56.0012 12.9783 58.7136 13.8596 59.6778 16.2601C60.6448 18.6606 59.3001 21.1842 56.4332 22.3372L53.3746 23.5675L50.0757 15.3617L53.1343 14.1314ZM10.8517 63.8959C11.444 61.3494 13.9733 59.6756 16.3938 60.2364C18.8144 60.7972 20.3623 63.418 19.77 65.9645C19.1806 68.5109 16.6371 70.1819 14.2165 69.6211C11.7959 69.0603 10.2623 66.4423 10.8517 63.8959ZM9.2266 83.4148L18.0591 82.8311L18.225 85.3261L9.39254 85.9098L9.2266 83.4148ZM13.836 105.392C12.7659 102.49 13.7272 99.8036 16.1564 98.9081C18.5855 98.0126 21.0719 99.4317 22.142 102.333L23.2836 105.429L14.9804 108.487L13.8388 105.392H13.836ZM31.6468 125.197L27.83 128.301L26.2535 126.361L29.9701 123.337C30.8485 122.622 31.0316 121.56 30.3993 120.779C29.767 120.001 28.6883 119.961 27.81 120.676L24.0933 123.7L22.5168 121.76L26.3336 118.656C28.1934 117.145 30.5996 117.429 32.1589 119.348C33.7183 121.268 33.5066 123.68 31.6468 125.191V125.197ZM64.1584 121.314C63.2514 123.448 62.7478 125.795 62.7478 128.261C62.7478 128.839 62.7764 129.411 62.8308 129.975C42.4535 122.713 27.8615 103.257 27.8615 80.3848C27.8615 77.3405 28.1333 74.362 28.6311 71.4579C30.0617 73.435 31.6582 75.3034 33.4293 77.0229C34.3935 77.9585 35.4007 78.8427 36.4364 79.6781C36.4335 79.9127 36.4192 80.1474 36.4192 80.3848C36.4192 98.9167 47.9212 114.805 64.1584 121.311V121.314ZM46.5736 140.332L45.3747 142.212L38.8598 138.058L40.0558 136.181L42.2618 137.586L45.8211 132.003L47.9269 133.348L44.3676 138.93L46.5736 140.335V140.332ZM63.815 143.637C65.5546 144.555 66.8565 145.422 66.3786 147.199C65.9237 148.904 64.2843 149.651 62.2586 149.11C60.7793 148.716 59.7293 148.009 58.9854 146.996L60.6477 145.614C61.2915 146.401 62.084 146.919 62.8565 147.125C63.4402 147.282 63.7893 147.122 63.8751 146.799C63.9924 146.364 63.7292 146.146 62.5819 145.56C60.7049 144.604 59.6034 143.737 60.0383 142.109C60.519 140.307 62.1842 139.617 64.3215 140.189C65.8636 140.601 67.1884 141.477 68.0152 142.721L66.2442 143.966C65.5575 143.05 64.7077 142.435 63.7006 142.166C63.0425 141.989 62.6334 142.12 62.5332 142.495C62.4245 142.904 62.7049 143.048 63.815 143.637ZM80.5014 138.959C74.5931 138.959 69.8035 134.169 69.8035 128.261C69.8035 123.992 72.3099 120.318 75.9293 118.602V82.9828H64.1984C54.3302 82.9828 44.8683 79.1803 37.8985 72.4193C30.9286 65.6583 27.0174 56.494 27.0174 46.9462V31.9937H47.8926C56.7422 31.9937 65.3 35.0552 72.0295 40.6202C78.7561 46.1852 83.2167 53.8903 84.6101 62.348L84.879 63.9731L86.0636 62.8258C89.2566 59.7328 93.0477 57.2779 97.2222 55.6042C101.397 53.9304 105.872 53.072 110.389 53.0777H133.983V65.3951C133.983 74.2447 130.357 82.7396 123.897 89.0056C117.436 95.2744 108.667 98.7994 99.5197 98.7994H85.0707V118.604C88.6873 120.321 91.1965 123.995 91.1965 128.264C91.1965 134.172 86.4069 138.962 80.4986 138.962L80.5014 138.959ZM96.8445 121.314C106.964 117.257 115.245 109.557 120.049 99.8409C123.047 98.1385 125.845 96.0584 128.369 93.6092C129.851 92.17 131.207 90.6221 132.438 88.9884C129.305 108.041 115.94 123.64 98.1721 129.972C98.2264 129.408 98.255 128.836 98.255 128.258C98.255 125.792 97.7515 123.446 96.8445 121.311V121.314ZM101.894 148.052C98.936 148.947 96.3094 147.829 95.5627 145.351C94.813 142.873 96.3781 140.475 99.3366 139.58L102.492 138.627L105.053 147.099L101.897 148.052H101.894ZM118.504 140.472L117.222 138.65L121.007 135.995L120.438 135.182L116.993 137.603L115.714 135.78L119.159 133.362L118.486 132.404L114.704 135.059L113.422 133.237L119.25 129.145L124.332 136.384L118.506 140.475L118.504 140.472ZM135.098 126.072L133.325 124.725L136.12 121.042L135.33 120.441L132.784 123.797L131.01 122.45L133.556 119.094L132.624 118.384L129.828 122.066L128.054 120.719L132.36 115.045L139.41 120.396L135.104 126.069L135.098 126.072ZM147.902 103.795C147.379 105.234 146.583 106.218 145.507 106.868L144.277 105.091C145.115 104.519 145.702 103.772 145.974 103.022C146.183 102.453 146.054 102.093 145.736 101.978C145.313 101.824 145.075 102.067 144.389 103.16C143.273 104.945 142.311 105.967 140.726 105.389C138.972 104.751 138.432 103.034 139.19 100.951C139.736 99.4517 140.724 98.2071 142.037 97.4947L143.121 99.3687C142.148 99.9753 141.462 100.765 141.107 101.746C140.875 102.387 140.97 102.805 141.333 102.937C141.731 103.083 141.897 102.814 142.583 101.761C143.651 100.107 144.629 98.8881 146.357 99.5175C148.014 100.121 148.615 101.818 147.899 103.792L147.902 103.795Z" fill="white"/>
</g>
</g>
</g>
</svg>
